<?xml version="1.0" encoding="utf-8"?>
<!-- Generator: Adobe Illustrator 29.6.1, SVG Export Plug-In . SVG Version: 9.03 Build 0)  -->
<svg version="1.1" baseProfile="tiny" xmlns="http://www.w3.org/2000/svg" xmlns:xlink="http://www.w3.org/1999/xlink" x="0px"
	 y="0px" width="841.89px" height="595.275px" viewBox="0 0 841.89 595.275" overflow="visible" xml:space="preserve">
<g id="Background">
	<rect x="0" fill="#F1F1F2" width="841.889" height="595.275"/>
</g>
<g id="Site_Area">
	<path fill="#D0D2D3" d="M801.956,447.1l-60.482,1.207l-14.177,3.166h-7.239l-40.723,1.659l-47.058-35.294L611.333,391L574,391.667
		L544.333,409l-80.667-0.333L451.333,392l-41-28L324,200.667l55.206-80.861l12.669-10.859l-30.59-8.947l-18.572-12.143
		l-39.438,4.036L222.35,203.513l-66.966,55.503l-96.829-14.931l10.407,39.969c0.981,0.453,4.764,21.439,4.764,21.439l5.945,25.925
		l11.617,12.868l40.267,3.572l-32.729,8.898l11.011,43.739l-12.67,0.905l13.122-0.302l33.784-6.335l-3.469-23.678l42.381-62.442
		l23.529,14.932l19.909,22.02l5.279,6.789l28.958,37.705c0,0,8.748,15.333,9.553,16.642c0.804,1.308,0.804,2.212,0.804,2.212
		l0.402,2.112l2.112,0.1l4.927,112.264l4.972,50.868L297,577.143L308,573l-0.25-31.25L298,542l-1.667-22l41.167-12.75l24-6.75
		l61,14.951H461v-80.87h164.341l55.353,41.326h20.06l13.876,10.558l9.352-12.82l3.02-7.931l7.857-0.714h5.715l8.571,5l5.453-4.952
		h44.041l6.484-3.168L801.956,447.1z M282.333,384.333l-5.667-7.667l-59.667-76L226.333,254l66-45L301,219.333l34,61.333
		L370.667,341L282.333,384.333z"/>
</g>
<g id="Roads">
	<g>
		<path fill="#B4B4B4" d="M766.524,182.442c-3.091-14.765-10.765-21.35-16.659-24.273c-13.155-6.526-27.66-0.669-30.623,0.665
			c-2.319,0.869-21.041,7.755-58.921,18.205c-12.34,3.404-21.524,8.11-27.506,14.037c-1.123-0.503-2.362-0.79-3.669-0.79
			c-0.05,0-0.101,0.001-0.15,0.001l-37.887,0.621l-40.326-81.313L539.314,0h-18.099l10.594,101.229
			c-3.565-0.907-8.026-2.018-13.36-3.328c-12.526-3.075-29.98-7.272-51.878-12.475c-37.263-8.853-75.003-17.673-75.38-17.761
			c-0.308-0.072-0.63-0.129-0.944-0.168c-0.317-0.04-31.861-4.14-45.791-19.888C336.56,38.683,321.92,18.291,309.167,0h-21.912
			c14.2,20.596,33.655,48.158,43.719,59.535c17.523,19.809,51.733,25.102,56.557,25.759c55.248,12.91,138.619,32.65,148.34,35.632
			c0.182,0.09,0.372,0.161,0.559,0.238l41.081,82.835c0.582,1.174,1.402,2.177,2.38,2.974l-3.634,11.809
			c-1.462,4.75,1.204,9.787,5.954,11.249c0.882,0.271,1.773,0.4,2.65,0.4c3.847,0,7.408-2.486,8.599-6.356l4.702-15.281
			l26.506-0.434c-0.351,7.014,2.457,12.485,3.721,14.562l69.609,147.032l25.586,67.521c1.761,4.648,6.957,6.986,11.605,5.227
			c4.647-1.762,6.988-6.957,5.227-11.605l-25.714-67.857c-0.085-0.224-0.179-0.445-0.281-0.662l-70-147.857
			c-0.217-0.457-0.472-0.895-0.762-1.31c-0.019-0.026-1.757-2.886-0.648-5.966c0.836-2.322,4.662-8.244,22.098-13.054
			c41.378-11.415,60.062-18.549,60.837-18.848c0.214-0.082,0.425-0.172,0.631-0.271c1.863-0.884,9.919-3.643,15.29-0.978
			c3.378,1.676,5.746,5.658,7.039,11.836c5.933,28.342,79.066,287.312,92.984,336.532V456.36
			C815.438,362.41,770.939,203.539,766.524,182.442z"/>
		<path fill="#B4B4B4" d="M102.841,567.431c-0.673-0.013-1.338,0.058-1.986,0.194L89.983,424.355l42.296-4.695
			c4.94-0.549,8.5-4.998,7.952-9.938c-0.548-4.939-4.995-8.491-9.938-7.952l-44.139,4.9L39.185,251.677
			c-1.442-4.757-6.466-7.445-11.223-6.003c-4.757,1.441-7.445,6.466-6.003,11.223l49.714,164.055l12.024,158.434l-21.307,15.89
			h30.11l13.146-9.804l200.515,2.813c0.059,0.002,0.116,0.002,0.172,0.001l535.557-2.739v-18l-535.563,2.739L102.841,567.431z"/>
		<path fill="#B4B4B4" d="M229.687,0L0,179.408v22.708c0.382-0.216,0.755-0.458,1.112-0.736L258.929,0H229.687z"/>
	</g>
</g>
<g id="Road_names">
	<g>
		<path fill="#FFFFFF" d="M411.466,82.929l1.047,0.528c-0.438,0.858-1.011,1.46-1.723,1.803c-0.711,0.343-1.504,0.416-2.376,0.221
			c-0.903-0.202-1.598-0.551-2.081-1.046c-0.483-0.494-0.795-1.124-0.934-1.888c-0.14-0.764-0.119-1.546,0.061-2.346
			c0.195-0.873,0.532-1.597,1.012-2.172c0.479-0.575,1.064-0.963,1.756-1.162c0.691-0.199,1.406-0.216,2.146-0.05
			c0.839,0.188,1.496,0.559,1.972,1.113c0.477,0.556,0.74,1.245,0.792,2.069l-1.149,0.013c-0.058-0.654-0.241-1.161-0.548-1.523
			c-0.308-0.36-0.741-0.604-1.302-0.729c-0.644-0.145-1.217-0.111-1.719,0.102c-0.502,0.211-0.898,0.558-1.191,1.039
			c-0.291,0.48-0.499,0.997-0.623,1.55c-0.16,0.713-0.195,1.358-0.107,1.937c0.088,0.579,0.322,1.049,0.702,1.41
			c0.379,0.36,0.823,0.599,1.334,0.713c0.622,0.14,1.189,0.078,1.699-0.184C410.744,84.066,411.155,83.599,411.466,82.929z"/>
		<path fill="#FFFFFF" d="M412.362,86.216l5.098-7.661l1.195,0.268l1.551,9.151l-1.263-0.283l-0.409-2.758l-3.505-0.785
			l-1.489,2.332L412.362,86.216z M415.552,83.316l2.842,0.637l-0.354-2.518c-0.108-0.765-0.177-1.389-0.205-1.871
			c-0.227,0.514-0.497,1.014-0.811,1.5L415.552,83.316z"/>
		<path fill="#FFFFFF" d="M428.472,81.023l1.109,0.249l-1.085,4.843c-0.19,0.842-0.435,1.49-0.736,1.942
			c-0.302,0.453-0.736,0.779-1.303,0.979c-0.567,0.199-1.255,0.208-2.063,0.027c-0.785-0.177-1.397-0.456-1.836-0.838
			c-0.44-0.383-0.708-0.854-0.807-1.415c-0.098-0.561-0.048-1.285,0.151-2.173l1.086-4.843l1.108,0.249l-1.084,4.837
			c-0.163,0.728-0.216,1.279-0.157,1.655c0.058,0.375,0.23,0.693,0.519,0.953c0.288,0.261,0.67,0.444,1.146,0.552
			c0.815,0.183,1.439,0.128,1.868-0.164c0.43-0.292,0.763-0.964,0.998-2.016L428.472,81.023z"/>
		<path fill="#FFFFFF" d="M429.775,87.29l1.067,0.143c-0.045,0.431-0.007,0.801,0.114,1.11c0.12,0.309,0.353,0.589,0.697,0.84
			c0.344,0.252,0.754,0.431,1.23,0.538c0.423,0.095,0.81,0.115,1.163,0.062c0.353-0.053,0.632-0.171,0.84-0.354
			c0.207-0.184,0.34-0.405,0.397-0.665c0.06-0.263,0.034-0.51-0.074-0.74c-0.108-0.231-0.323-0.452-0.645-0.663
			c-0.205-0.139-0.672-0.386-1.4-0.744c-0.729-0.357-1.229-0.652-1.501-0.885c-0.353-0.3-0.593-0.627-0.72-0.982
			c-0.126-0.354-0.146-0.725-0.06-1.109c0.095-0.423,0.304-0.792,0.627-1.106c0.322-0.313,0.735-0.514,1.239-0.602
			c0.504-0.087,1.038-0.067,1.601,0.06c0.621,0.139,1.148,0.361,1.577,0.668c0.43,0.307,0.728,0.683,0.896,1.129
			c0.169,0.446,0.207,0.917,0.116,1.413l-1.082-0.158c0.061-0.543-0.042-0.986-0.312-1.331c-0.269-0.345-0.725-0.589-1.369-0.733
			c-0.671-0.15-1.188-0.137-1.55,0.04c-0.361,0.178-0.581,0.439-0.659,0.786c-0.067,0.302-0.015,0.573,0.159,0.816
			c0.17,0.242,0.683,0.566,1.539,0.973c0.855,0.406,1.434,0.723,1.735,0.95c0.438,0.334,0.733,0.7,0.889,1.097
			c0.155,0.397,0.183,0.821,0.082,1.271c-0.101,0.446-0.322,0.838-0.666,1.175c-0.344,0.338-0.779,0.562-1.307,0.674
			c-0.527,0.112-1.091,0.101-1.688-0.033c-0.759-0.17-1.37-0.423-1.833-0.759c-0.463-0.336-0.791-0.759-0.983-1.269
			C429.706,88.39,429.665,87.854,429.775,87.29z"/>
		<path fill="#FFFFFF" d="M437.382,91.824l1.879-8.382l6.061,1.358l-0.222,0.988l-4.951-1.109l-0.575,2.567l4.637,1.039
			l-0.221,0.983l-4.637-1.039l-0.64,2.854l5.146,1.153l-0.222,0.989L437.382,91.824z"/>
		<path fill="#FFFFFF" d="M446.633,93.897l-0.345-8.881l1.138,0.255l0.044,5.781c0.008,0.605-0.002,1.204-0.03,1.794
			c0.414-0.848,0.655-1.336,0.725-1.464l2.863-5.304l1.338,0.3l0.251,4.512c0.065,1.119,0.061,2.157-0.015,3.113
			c0.227-0.506,0.502-1.082,0.827-1.729l2.522-5.092l1.115,0.25l-4.177,7.867l-1.069-0.24l-0.335-6.782
			c-0.029-0.567-0.044-0.914-0.043-1.043c-0.174,0.365-0.329,0.676-0.467,0.929l-3.209,5.988L446.633,93.897z"/>
		<path fill="#FFFFFF" d="M454.866,95.743l5.099-7.661l1.194,0.268l1.552,9.151l-1.264-0.283l-0.408-2.758l-3.505-0.786l-1.49,2.333
			L454.866,95.743z M458.057,92.842l2.842,0.637l-0.354-2.518c-0.108-0.765-0.178-1.389-0.205-1.871
			c-0.228,0.514-0.497,1.014-0.811,1.5L458.057,92.842z"/>
		<path fill="#FFFFFF" d="M465.09,98.034l0.796-3.551l-2.147-5.556l1.349,0.303l1.086,2.897c0.199,0.541,0.378,1.077,0.534,1.608
			c0.35-0.382,0.766-0.807,1.247-1.275l2.176-2.101l1.293,0.29l-4.429,4.082l-0.796,3.551L465.09,98.034z"/>
		<path fill="#FFFFFF" d="M473.534,99.926l1.879-8.382l1.109,0.248l-1.657,7.394l4.128,0.925l-0.222,0.989L473.534,99.926z"/>
		<path fill="#FFFFFF" d="M479.172,101.19l5.098-7.661l1.195,0.268l1.552,9.151l-1.264-0.283l-0.408-2.758l-3.505-0.786l-1.49,2.333
			L479.172,101.19z M482.362,98.29l2.841,0.637l-0.354-2.518c-0.109-0.765-0.178-1.389-0.205-1.87
			c-0.227,0.513-0.498,1.013-0.81,1.499L482.362,98.29z"/>
		<path fill="#FFFFFF" d="M487.892,103.144l1.879-8.383l1.138,0.256l2.927,7.567l1.475-6.581l1.064,0.238l-1.879,8.383l-1.138-0.256
			l-2.926-7.573l-1.477,6.587L487.892,103.144z"/>
		<path fill="#FFFFFF" d="M496.382,105.047l1.879-8.383l6.061,1.358l-0.222,0.989l-4.951-1.109l-0.576,2.567l4.638,1.039
			l-0.221,0.983l-4.637-1.039l-0.64,2.853l5.145,1.153l-0.222,0.989L496.382,105.047z"/>
	</g>
	<g>
		<path fill="#FFFFFF" d="M772.158,244.447l0.025,1.172c-0.963,0.019-1.764-0.205-2.401-0.672c-0.637-0.466-1.074-1.131-1.311-1.993
			c-0.247-0.893-0.266-1.668-0.057-2.328c0.209-0.659,0.618-1.23,1.227-1.711c0.608-0.482,1.309-0.833,2.099-1.051
			c0.862-0.238,1.661-0.281,2.393-0.129c0.732,0.152,1.35,0.486,1.851,1.003c0.501,0.517,0.852,1.14,1.054,1.87
			c0.229,0.828,0.211,1.583-0.056,2.265c-0.266,0.681-0.751,1.238-1.453,1.671l-0.552-1.009c0.549-0.358,0.911-0.758,1.085-1.198
			c0.175-0.441,0.185-0.939,0.032-1.492c-0.176-0.637-0.475-1.127-0.898-1.47c-0.422-0.343-0.914-0.53-1.477-0.562
			c-0.562-0.031-1.115,0.028-1.662,0.179c-0.703,0.194-1.29,0.467-1.759,0.816c-0.469,0.351-0.773,0.778-0.913,1.282
			c-0.141,0.505-0.142,1.01-0.002,1.514c0.169,0.614,0.489,1.086,0.961,1.413C770.814,244.344,771.42,244.488,772.158,244.447z"/>
		<path fill="#FFFFFF" d="M769.939,247.727l8.28-2.285l0.302,1.096l-3.4,0.938l1.188,4.305l3.4-0.938l0.303,1.096l-8.28,2.285
			l-0.302-1.096l3.902-1.077l-1.188-4.305l-3.903,1.077L769.939,247.727z"/>
		<path fill="#FFFFFF" d="M782.015,259.196l0.302,1.096l-4.783,1.32c-0.832,0.23-1.52,0.318-2.061,0.265
			c-0.541-0.053-1.033-0.283-1.477-0.69c-0.442-0.406-0.773-1.009-0.994-1.807c-0.214-0.775-0.256-1.447-0.124-2.015
			c0.132-0.566,0.421-1.025,0.869-1.376c0.448-0.352,1.111-0.648,1.988-0.89l4.784-1.319l0.303,1.096l-4.778,1.318
			c-0.72,0.198-1.23,0.411-1.534,0.639c-0.305,0.229-0.504,0.53-0.599,0.906c-0.095,0.377-0.077,0.801,0.053,1.271
			c0.223,0.806,0.563,1.33,1.023,1.572c0.46,0.241,1.209,0.219,2.249-0.068L782.015,259.196z"/>
		<path fill="#FFFFFF" d="M774.545,264.418l8.28-2.285l1.013,3.672c0.203,0.737,0.284,1.318,0.241,1.744
			c-0.042,0.426-0.221,0.805-0.533,1.139c-0.314,0.333-0.698,0.562-1.153,0.689c-0.588,0.162-1.135,0.108-1.643-0.161
			c-0.508-0.268-0.927-0.785-1.255-1.55c-0.06,0.329-0.136,0.587-0.23,0.775c-0.205,0.401-0.488,0.806-0.851,1.214l-1.855,2.062
			l-0.381-1.378l1.42-1.571c0.409-0.457,0.717-0.826,0.924-1.105c0.206-0.279,0.339-0.517,0.399-0.709
			c0.06-0.193,0.088-0.38,0.083-0.561c-0.008-0.132-0.051-0.339-0.129-0.621l-0.351-1.271l-3.678,1.015L774.545,264.418z
			 M779.473,264.237l0.65,2.355c0.138,0.501,0.298,0.879,0.479,1.133c0.181,0.253,0.406,0.422,0.675,0.507
			c0.269,0.083,0.536,0.089,0.803,0.015c0.393-0.107,0.675-0.339,0.849-0.693c0.174-0.354,0.176-0.838,0.007-1.451l-0.724-2.621
			L779.473,264.237z"/>
		<path fill="#FFFFFF" d="M781.379,277.862l0.025,1.172c-0.964,0.019-1.764-0.205-2.401-0.671c-0.637-0.467-1.074-1.132-1.312-1.993
			c-0.246-0.893-0.265-1.669-0.056-2.328c0.209-0.659,0.617-1.23,1.227-1.712c0.608-0.482,1.309-0.832,2.099-1.051
			c0.862-0.237,1.66-0.28,2.393-0.128c0.732,0.152,1.35,0.486,1.851,1.003c0.501,0.516,0.852,1.14,1.054,1.87
			c0.229,0.828,0.21,1.582-0.056,2.264c-0.267,0.682-0.751,1.238-1.454,1.672l-0.552-1.009c0.55-0.358,0.911-0.758,1.086-1.199
			c0.174-0.441,0.185-0.939,0.032-1.491c-0.176-0.637-0.476-1.127-0.898-1.47c-0.423-0.343-0.915-0.531-1.477-0.562
			c-0.562-0.031-1.116,0.028-1.662,0.179c-0.704,0.195-1.291,0.467-1.76,0.817c-0.469,0.35-0.773,0.777-0.913,1.282
			c-0.14,0.505-0.141,1.01-0.001,1.514c0.169,0.613,0.489,1.084,0.961,1.412C780.035,277.76,780.641,277.903,781.379,277.862z"/>
		<path fill="#FFFFFF" d="M779.159,281.143l8.28-2.285l0.303,1.096l-3.4,0.939l1.188,4.304l3.4-0.938l0.303,1.096l-8.281,2.284
			l-0.302-1.096l3.903-1.077l-1.188-4.304l-3.903,1.077L779.159,281.143z"/>
		<path fill="#FFFFFF" d="M786.658,295.655l0.973-0.268l0.973,3.506l-3.072,0.847c-0.578-0.42-1.055-0.886-1.429-1.398
			c-0.374-0.513-0.644-1.07-0.81-1.673c-0.225-0.813-0.255-1.601-0.089-2.361c0.164-0.761,0.529-1.401,1.095-1.922
			c0.565-0.521,1.255-0.894,2.068-1.118c0.806-0.222,1.605-0.261,2.396-0.117c0.792,0.145,1.444,0.486,1.958,1.025
			c0.513,0.539,0.884,1.221,1.111,2.045c0.165,0.6,0.218,1.168,0.157,1.705c-0.061,0.537-0.226,0.991-0.496,1.361
			c-0.271,0.371-0.665,0.704-1.184,1.001l-0.543-0.913c0.387-0.241,0.676-0.486,0.866-0.738c0.19-0.25,0.311-0.567,0.36-0.949
			c0.051-0.383,0.018-0.783-0.098-1.201c-0.138-0.502-0.334-0.914-0.586-1.236c-0.254-0.323-0.535-0.562-0.846-0.719
			c-0.311-0.155-0.632-0.254-0.964-0.296c-0.569-0.069-1.154-0.023-1.753,0.143c-0.738,0.203-1.32,0.501-1.748,0.893
			c-0.427,0.391-0.693,0.863-0.801,1.415c-0.107,0.553-0.085,1.102,0.065,1.648c0.131,0.475,0.351,0.912,0.657,1.313
			c0.308,0.402,0.597,0.69,0.868,0.867l1.542-0.425L786.658,295.655z"/>
		<path fill="#FFFFFF" d="M784.574,300.764l9.157,0.897l0.325,1.18l-7.345,5.674l-0.345-1.248l2.242-1.658l-0.956-3.461
			l-2.759-0.219L784.574,300.764z M788.634,302.217l0.774,2.807l2.055-1.498c0.624-0.455,1.142-0.809,1.555-1.06
			c-0.561,0.041-1.128,0.037-1.705-0.01L788.634,302.217z"/>
		<path fill="#FFFFFF" d="M787.298,310.639l7.304-2.016l-0.753-2.729l0.978-0.27l1.81,6.562l-0.977,0.27l-0.757-2.738l-7.303,2.016
			L787.298,310.639z"/>
		<path fill="#FFFFFF" d="M788.673,315.619l8.28-2.283l1.652,5.986l-0.978,0.27l-1.35-4.891l-2.536,0.699l1.264,4.58l-0.972,0.268
			l-1.264-4.58l-2.818,0.777l1.402,5.084l-0.977,0.27L788.673,315.619z"/>
	</g>
	<g>
		<path fill="#FFFFFF" d="M645.386,250.097l7.732-3.743l0.508,1.05l-4.104,6.999l6.07-2.938l0.475,0.98l-7.731,3.743l-0.509-1.049
			l4.11-7.003l-6.076,2.941L645.386,250.097z"/>
		<path fill="#FFFFFF" d="M649.178,257.928l7.731-3.743l2.707,5.591l-0.913,0.441l-2.211-4.566l-2.367,1.145l2.07,4.277l-0.907,0.44
			l-2.07-4.277l-2.632,1.274l2.298,4.746l-0.912,0.441L649.178,257.928z"/>
		<path fill="#FFFFFF" d="M653.309,266.461l6.738-5.794l0.508,1.049l-4.499,3.63c-0.47,0.384-0.944,0.748-1.424,1.093
			c0.922-0.203,1.454-0.317,1.598-0.344l5.934-1.057l0.598,1.234l-3.377,3.002c-0.836,0.748-1.651,1.39-2.446,1.927
			c0.536-0.138,1.16-0.281,1.869-0.43l5.555-1.192l0.498,1.029l-8.758,1.622l-0.478-0.986l5.103-4.481
			c0.426-0.375,0.688-0.603,0.789-0.682c-0.394,0.091-0.732,0.162-1.017,0.213l-6.685,1.212L653.309,266.461z"/>
		<path fill="#FFFFFF" d="M659.022,278.264l7.731-3.743l1.404,2.901c0.286,0.591,0.438,1.103,0.453,1.535
			c0.017,0.432-0.089,0.828-0.316,1.189c-0.227,0.359-0.518,0.625-0.873,0.797c-0.331,0.16-0.686,0.221-1.065,0.183
			c-0.379-0.038-0.745-0.194-1.1-0.47c0.09,0.533,0.029,1.007-0.18,1.418c-0.209,0.411-0.538,0.727-0.988,0.943
			c-0.361,0.176-0.735,0.262-1.121,0.26c-0.385-0.002-0.717-0.074-0.994-0.218c-0.277-0.144-0.541-0.364-0.792-0.662
			c-0.25-0.297-0.495-0.692-0.733-1.185L659.022,278.264z M660.431,278.846l0.932,1.925c0.16,0.33,0.284,0.557,0.374,0.679
			c0.156,0.215,0.322,0.377,0.496,0.487c0.176,0.111,0.382,0.172,0.619,0.184c0.238,0.01,0.479-0.044,0.726-0.163
			c0.288-0.14,0.503-0.335,0.644-0.585c0.142-0.251,0.192-0.528,0.151-0.832c-0.04-0.304-0.181-0.701-0.419-1.193l-0.865-1.788
			L660.431,278.846z M664.001,277.118l0.81,1.672c0.219,0.453,0.406,0.764,0.562,0.933c0.203,0.223,0.427,0.355,0.67,0.4
			c0.243,0.046,0.5,0.003,0.771-0.129c0.257-0.124,0.453-0.295,0.588-0.512c0.136-0.218,0.184-0.459,0.146-0.722
			c-0.038-0.264-0.192-0.673-0.461-1.229l-0.748-1.545L664.001,277.118z"/>
		<path fill="#FFFFFF" d="M666.146,283.376c1.283-0.621,2.455-0.763,3.515-0.426c1.06,0.338,1.854,1.052,2.381,2.143
			c0.346,0.713,0.486,1.439,0.423,2.178c-0.063,0.737-0.327,1.404-0.792,2.001c-0.465,0.596-1.084,1.081-1.857,1.455
			c-0.783,0.38-1.562,0.562-2.334,0.544c-0.771-0.017-1.457-0.238-2.057-0.664c-0.599-0.426-1.06-0.975-1.386-1.646
			c-0.353-0.729-0.491-1.463-0.417-2.207c0.073-0.743,0.344-1.409,0.809-1.999C664.894,284.165,665.467,283.705,666.146,283.376z
			 M666.641,284.439c-0.932,0.451-1.545,1.057-1.838,1.818c-0.294,0.76-0.258,1.518,0.108,2.273c0.372,0.771,0.95,1.273,1.732,1.509
			c0.782,0.235,1.671,0.112,2.666-0.37c0.629-0.305,1.127-0.677,1.493-1.116c0.367-0.44,0.58-0.928,0.64-1.462
			c0.06-0.535-0.033-1.058-0.28-1.567c-0.35-0.724-0.9-1.227-1.65-1.509C668.762,283.735,667.805,283.876,666.641,284.439z"/>
		<path fill="#FFFFFF" d="M666.593,293.902l7.731-3.743l0.508,1.05l-4.104,6.999l6.07-2.938l0.475,0.98l-7.731,3.743l-0.509-1.049
			l4.11-7.002l-6.076,2.941L666.593,293.902z"/>
		<path fill="#FFFFFF" d="M670.374,301.713l7.731-3.744l1.289,2.664c0.291,0.602,0.477,1.078,0.556,1.43
			c0.112,0.492,0.111,0.959-0.005,1.402c-0.146,0.574-0.439,1.092-0.877,1.555c-0.439,0.461-1.003,0.859-1.692,1.193
			c-0.587,0.283-1.141,0.467-1.66,0.549c-0.521,0.082-0.98,0.088-1.382,0.018c-0.4-0.07-0.748-0.191-1.041-0.363
			c-0.295-0.174-0.572-0.418-0.835-0.736c-0.263-0.316-0.507-0.711-0.733-1.178L670.374,301.713z M671.782,302.293l0.799,1.652
			c0.247,0.51,0.488,0.887,0.724,1.129c0.235,0.244,0.48,0.412,0.736,0.5c0.359,0.125,0.777,0.156,1.253,0.094
			c0.475-0.062,1.005-0.236,1.588-0.518c0.809-0.393,1.366-0.826,1.671-1.301c0.307-0.477,0.441-0.939,0.404-1.391
			c-0.027-0.326-0.188-0.793-0.482-1.4l-0.786-1.625L671.782,302.293z"/>
		<path fill="#FFFFFF" d="M677.918,310.963l0.553,0.924c-0.365,0.233-0.631,0.492-0.798,0.779c-0.167,0.287-0.242,0.645-0.225,1.07
			c0.017,0.424,0.132,0.857,0.345,1.297c0.189,0.391,0.414,0.707,0.675,0.949c0.261,0.242,0.527,0.389,0.8,0.436
			c0.273,0.049,0.529,0.016,0.768-0.102c0.242-0.117,0.42-0.289,0.533-0.518c0.112-0.229,0.152-0.533,0.119-0.918
			c-0.02-0.246-0.116-0.766-0.289-1.559c-0.174-0.793-0.254-1.367-0.24-1.727c0.015-0.463,0.121-0.853,0.319-1.174
			c0.199-0.318,0.477-0.565,0.832-0.736c0.391-0.189,0.809-0.256,1.255-0.199c0.446,0.059,0.86,0.258,1.242,0.598
			c0.382,0.34,0.698,0.77,0.95,1.291c0.277,0.572,0.431,1.123,0.458,1.65c0.027,0.527-0.081,0.994-0.326,1.404
			c-0.244,0.408-0.589,0.732-1.034,0.969l-0.549-0.945c0.463-0.289,0.746-0.646,0.848-1.07c0.102-0.426,0.01-0.935-0.277-1.529
			c-0.3-0.619-0.631-1.016-0.995-1.188c-0.364-0.174-0.706-0.184-1.025-0.027c-0.278,0.135-0.458,0.344-0.54,0.631
			c-0.084,0.285-0.02,0.889,0.195,1.811c0.215,0.922,0.326,1.572,0.336,1.949c0.01,0.551-0.092,1.012-0.306,1.379
			c-0.215,0.369-0.529,0.654-0.944,0.853c-0.411,0.199-0.857,0.27-1.334,0.211c-0.478-0.061-0.925-0.262-1.341-0.605
			c-0.415-0.342-0.757-0.791-1.024-1.342c-0.339-0.699-0.521-1.336-0.546-1.906c-0.024-0.572,0.103-1.092,0.382-1.559
			C677.014,311.592,677.408,311.227,677.918,310.963z"/>
		<path fill="#FFFFFF" d="M680.043,321.684l6.819-3.301l-1.233-2.547l0.912-0.441l2.967,6.127l-0.912,0.441l-1.238-2.557
			l-6.818,3.301L680.043,321.684z"/>
		<path fill="#FFFFFF" d="M682.293,326.33l7.73-3.742l1.66,3.428c0.334,0.689,0.518,1.246,0.553,1.672
			c0.035,0.426-0.072,0.832-0.319,1.217c-0.248,0.385-0.585,0.68-1.01,0.885c-0.549,0.266-1.097,0.312-1.646,0.139
			c-0.548-0.172-1.053-0.605-1.514-1.297c0.001,0.332-0.027,0.602-0.086,0.803c-0.13,0.432-0.336,0.881-0.617,1.348l-1.453,2.363
			l-0.623-1.287l1.112-1.803c0.32-0.523,0.556-0.941,0.708-1.254c0.152-0.312,0.241-0.568,0.266-0.77
			c0.024-0.199,0.018-0.389-0.02-0.566c-0.032-0.127-0.112-0.322-0.24-0.586l-0.574-1.188l-3.433,1.662L682.293,326.33z
			 M687.107,325.264l1.065,2.197c0.227,0.469,0.451,0.811,0.676,1.027c0.225,0.217,0.477,0.342,0.756,0.377
			c0.278,0.033,0.543-0.01,0.793-0.131c0.365-0.176,0.602-0.455,0.709-0.834c0.106-0.381,0.022-0.855-0.256-1.43l-1.185-2.445
			L687.107,325.264z"/>
		<path fill="#FFFFFF" d="M686.071,334.135l7.731-3.742l2.707,5.59l-0.913,0.441l-2.211-4.566l-2.368,1.147l2.07,4.277l-0.906,0.439
			l-2.071-4.277l-2.631,1.273l2.298,4.746l-0.913,0.441L686.071,334.135z"/>
		<path fill="#FFFFFF" d="M689.559,341.34l7.732-3.742l2.706,5.59l-0.913,0.441l-2.211-4.566l-2.367,1.146l2.07,4.275l-0.907,0.439
			l-2.07-4.277l-2.632,1.275l2.298,4.746l-0.912,0.441L689.559,341.34z"/>
		<path fill="#FFFFFF" d="M693.988,350.49l6.819-3.301l-1.233-2.549l0.913-0.441l2.967,6.129l-0.913,0.441l-1.238-2.559
			l-6.818,3.303L693.988,350.49z"/>
	</g>
	<g>
		<path fill="#FFFFFF" d="M446.767,583.194l-0.018-8.59l1.137-0.002l0.007,3.527l4.465-0.01l-0.007-3.527l1.137-0.002l0.018,8.59
			l-1.137,0.002l-0.009-4.049l-4.465,0.01l0.009,4.049L446.767,583.194z"/>
		<path fill="#FFFFFF" d="M455.591,583.177l-0.018-8.59l1.137-0.003l0.017,8.59L455.591,583.177z"/>
		<path fill="#FFFFFF" d="M462.744,579.793l-0.002-1.008l3.639-0.014l0.006,3.188c-0.558,0.446-1.133,0.783-1.727,1.009
			c-0.593,0.226-1.202,0.339-1.827,0.341c-0.844,0.001-1.61-0.178-2.301-0.538c-0.69-0.359-1.212-0.881-1.564-1.564
			c-0.353-0.684-0.53-1.446-0.532-2.29c-0.002-0.836,0.172-1.617,0.52-2.342c0.349-0.726,0.85-1.265,1.506-1.617
			c0.655-0.354,1.411-0.53,2.267-0.532c0.621-0.001,1.183,0.098,1.685,0.298c0.503,0.2,0.897,0.481,1.183,0.839
			c0.286,0.358,0.504,0.827,0.653,1.405l-1.024,0.283c-0.13-0.438-0.291-0.781-0.483-1.03c-0.191-0.25-0.466-0.449-0.821-0.6
			c-0.355-0.149-0.75-0.224-1.184-0.223c-0.52,0.001-0.969,0.081-1.348,0.24c-0.379,0.158-0.684,0.367-0.916,0.626
			c-0.232,0.258-0.411,0.541-0.54,0.85c-0.218,0.531-0.326,1.107-0.324,1.729c0.001,0.766,0.135,1.406,0.399,1.922
			c0.265,0.515,0.65,0.897,1.153,1.146c0.505,0.249,1.04,0.373,1.606,0.372c0.492-0.001,0.973-0.097,1.44-0.287
			c0.469-0.19,0.824-0.394,1.065-0.608l-0.003-1.6L462.744,579.793z"/>
		<path fill="#FFFFFF" d="M468.101,583.151l-0.018-8.59l1.137-0.003l0.007,3.527l4.465-0.009l-0.007-3.527l1.137-0.002l0.018,8.59
			l-1.137,0.002l-0.009-4.049l-4.465,0.009l0.009,4.049L468.101,583.151z"/>
		<path fill="#FFFFFF" d="M479.673,580.368l1.072-0.097c0.052,0.43,0.17,0.782,0.357,1.058c0.186,0.274,0.475,0.497,0.865,0.666
			c0.392,0.169,0.831,0.253,1.319,0.252c0.434-0.001,0.816-0.066,1.148-0.195c0.331-0.13,0.578-0.307,0.739-0.532
			c0.162-0.225,0.242-0.47,0.242-0.735c-0.001-0.269-0.079-0.505-0.236-0.706c-0.156-0.2-0.414-0.369-0.774-0.505
			c-0.23-0.09-0.74-0.229-1.529-0.416c-0.79-0.188-1.343-0.365-1.66-0.533c-0.41-0.214-0.717-0.479-0.918-0.798
			c-0.202-0.317-0.304-0.674-0.304-1.068c-0.001-0.434,0.121-0.839,0.366-1.217c0.245-0.377,0.604-0.664,1.076-0.86
			c0.473-0.196,0.998-0.295,1.576-0.296c0.637-0.002,1.198,0.1,1.685,0.304c0.487,0.204,0.861,0.505,1.124,0.903
			c0.263,0.397,0.404,0.849,0.425,1.352l-1.09,0.084c-0.06-0.543-0.259-0.952-0.597-1.229c-0.339-0.276-0.838-0.414-1.498-0.412
			c-0.688,0.001-1.189,0.128-1.503,0.381c-0.314,0.252-0.47,0.557-0.47,0.912c0.001,0.309,0.113,0.562,0.336,0.761
			c0.219,0.199,0.791,0.401,1.715,0.608c0.925,0.208,1.559,0.389,1.902,0.545c0.501,0.228,0.87,0.52,1.109,0.873
			c0.239,0.354,0.359,0.76,0.36,1.221c0.001,0.457-0.129,0.889-0.391,1.293c-0.261,0.405-0.636,0.721-1.126,0.946
			c-0.489,0.226-1.041,0.339-1.654,0.34c-0.777,0.002-1.429-0.11-1.955-0.336c-0.525-0.226-0.938-0.565-1.238-1.02
			C479.848,581.456,479.689,580.942,479.673,580.368z"/>
		<path fill="#FFFFFF" d="M490.255,583.107l-0.016-7.576l-2.83,0.006l-0.002-1.014l6.809-0.015l0.002,1.014l-2.842,0.006
			l0.016,7.576L490.255,583.107z"/>
		<path fill="#FFFFFF" d="M495.417,583.096l-0.018-8.59l3.809-0.008c0.766-0.002,1.348,0.074,1.746,0.227
			c0.399,0.154,0.718,0.426,0.957,0.815c0.239,0.391,0.359,0.822,0.36,1.295c0.001,0.609-0.195,1.123-0.589,1.542
			c-0.393,0.419-1.003,0.686-1.826,0.801c0.301,0.144,0.529,0.286,0.687,0.426c0.332,0.305,0.647,0.685,0.945,1.141l1.499,2.335
			l-1.43,0.003l-1.141-1.784c-0.333-0.516-0.607-0.909-0.822-1.183c-0.216-0.272-0.408-0.464-0.579-0.573
			c-0.17-0.108-0.343-0.185-0.519-0.227c-0.129-0.027-0.34-0.041-0.633-0.04l-1.318,0.003l0.008,3.815L495.417,583.096z
			 M496.544,578.295l2.443-0.005c0.52-0.002,0.926-0.056,1.218-0.164c0.293-0.108,0.516-0.28,0.667-0.517
			c0.152-0.237,0.228-0.494,0.228-0.771c-0.001-0.406-0.149-0.74-0.444-1.001c-0.296-0.261-0.762-0.391-1.398-0.39l-2.719,0.006
			L496.544,578.295z"/>
		<path fill="#FFFFFF" d="M504.089,583.078l-0.018-8.59l6.211-0.013l0.002,1.014l-5.074,0.011l0.005,2.631l4.752-0.01l0.003,1.008
			l-4.752,0.01l0.006,2.924l5.273-0.011l0.002,1.014L504.089,583.078z"/>
		<path fill="#FFFFFF" d="M512.093,583.061l-0.018-8.59l6.211-0.013l0.002,1.014l-5.074,0.011l0.005,2.631l4.752-0.01l0.003,1.008
			l-4.752,0.01l0.006,2.924l5.273-0.011l0.002,1.014L512.093,583.061z"/>
		<path fill="#FFFFFF" d="M522.259,583.041l-0.016-7.576l-2.83,0.006l-0.002-1.014l6.809-0.014l0.002,1.014l-2.842,0.006
			l0.016,7.576L522.259,583.041z"/>
	</g>
	<g>
		<path d="M724.583,31.485v-0.696h3.696v4.464h-0.696v-1.476c-0.151,0.256-0.325,0.49-0.521,0.702s-0.422,0.392-0.678,0.54
			c-0.257,0.148-0.553,0.262-0.889,0.342s-0.716,0.12-1.14,0.12c-0.544,0-1.048-0.096-1.512-0.288
			c-0.465-0.192-0.864-0.478-1.2-0.858s-0.599-0.858-0.786-1.434c-0.188-0.576-0.282-1.248-0.282-2.016
			c0-0.632,0.08-1.222,0.24-1.77c0.16-0.548,0.406-1.024,0.738-1.428s0.748-0.722,1.248-0.954s1.09-0.348,1.77-0.348
			c0.456,0,0.882,0.056,1.278,0.168c0.396,0.112,0.752,0.282,1.067,0.51c0.316,0.228,0.582,0.512,0.799,0.852
			c0.216,0.34,0.372,0.742,0.468,1.206h-0.84c-0.072-0.32-0.194-0.608-0.366-0.864c-0.172-0.256-0.378-0.47-0.618-0.642
			c-0.24-0.172-0.508-0.304-0.804-0.396c-0.296-0.092-0.604-0.138-0.924-0.138c-0.568,0-1.057,0.1-1.465,0.3
			c-0.407,0.2-0.743,0.482-1.008,0.846c-0.264,0.364-0.458,0.8-0.582,1.308c-0.124,0.508-0.186,1.066-0.186,1.674
			c0,0.48,0.069,0.936,0.21,1.368c0.14,0.432,0.344,0.812,0.612,1.14c0.268,0.328,0.596,0.588,0.983,0.78
			c0.388,0.192,0.83,0.288,1.326,0.288c0.232,0,0.472-0.026,0.72-0.078s0.488-0.138,0.721-0.258c0.231-0.12,0.447-0.276,0.647-0.468
			s0.372-0.428,0.517-0.708c0.136-0.272,0.229-0.556,0.281-0.852s0.082-0.608,0.09-0.936H724.583z"/>
		<path d="M731.052,31.329v3.924l-0.816-0.012v-8.628h3.384c0.952,0,1.681,0.178,2.185,0.534s0.756,0.934,0.756,1.734
			c0,0.544-0.11,0.976-0.33,1.296c-0.221,0.32-0.578,0.592-1.074,0.816c0.256,0.088,0.456,0.216,0.601,0.384
			c0.144,0.168,0.252,0.36,0.323,0.576c0.072,0.216,0.118,0.444,0.139,0.684c0.02,0.24,0.033,0.472,0.042,0.696
			c0.008,0.328,0.021,0.6,0.042,0.816c0.02,0.216,0.044,0.392,0.071,0.528c0.028,0.136,0.062,0.242,0.103,0.318
			s0.088,0.134,0.144,0.174v0.072l-0.899,0.012c-0.089-0.144-0.15-0.344-0.187-0.6c-0.036-0.256-0.063-0.524-0.084-0.804
			c-0.02-0.28-0.036-0.552-0.048-0.816c-0.012-0.264-0.034-0.48-0.066-0.648c-0.048-0.232-0.126-0.418-0.233-0.558
			c-0.108-0.14-0.238-0.246-0.391-0.318c-0.151-0.072-0.321-0.12-0.51-0.144c-0.188-0.024-0.382-0.036-0.582-0.036H731.052z
			 M733.596,30.633c0.304,0,0.586-0.032,0.846-0.096s0.486-0.166,0.678-0.306c0.192-0.14,0.344-0.318,0.456-0.534
			c0.112-0.216,0.168-0.476,0.168-0.78c0-0.32-0.058-0.584-0.174-0.792s-0.272-0.372-0.468-0.492
			c-0.196-0.12-0.42-0.204-0.672-0.252s-0.515-0.072-0.786-0.072h-2.592v3.324H733.596z"/>
		<path d="M737.915,30.945c0-0.632,0.086-1.224,0.258-1.776c0.173-0.552,0.427-1.034,0.763-1.446s0.752-0.738,1.248-0.978
			c0.496-0.24,1.067-0.36,1.716-0.36c0.672,0,1.262,0.118,1.77,0.354c0.508,0.236,0.933,0.56,1.272,0.972s0.596,0.896,0.768,1.452
			s0.259,1.15,0.259,1.782c0,0.624-0.087,1.21-0.259,1.758s-0.426,1.028-0.762,1.44s-0.756,0.738-1.26,0.978
			c-0.504,0.24-1.088,0.36-1.752,0.36s-1.248-0.12-1.752-0.36c-0.504-0.24-0.924-0.566-1.261-0.978
			c-0.336-0.412-0.588-0.892-0.756-1.44S737.915,31.569,737.915,30.945z M741.947,34.785c0.56,0,1.042-0.106,1.446-0.318
			c0.403-0.212,0.735-0.494,0.996-0.846c0.26-0.352,0.451-0.76,0.575-1.224s0.187-0.948,0.187-1.452c0-0.6-0.074-1.138-0.222-1.614
			c-0.148-0.476-0.362-0.882-0.643-1.218s-0.62-0.592-1.02-0.768c-0.4-0.176-0.849-0.264-1.345-0.264
			c-0.552,0-1.029,0.108-1.434,0.324c-0.404,0.216-0.736,0.502-0.996,0.858c-0.26,0.356-0.452,0.767-0.576,1.23
			s-0.186,0.948-0.186,1.452c0,0.512,0.062,1,0.186,1.464c0.124,0.464,0.316,0.872,0.576,1.224s0.592,0.632,0.996,0.84
			S741.379,34.785,741.947,34.785z"/>
		<path d="M747.6,26.613h0.815v5.148c0,1.072,0.2,1.844,0.601,2.316c0.399,0.472,1.044,0.708,1.932,0.708
			c0.464,0,0.858-0.062,1.182-0.186c0.324-0.124,0.586-0.312,0.786-0.564c0.2-0.252,0.344-0.566,0.433-0.942
			c0.088-0.376,0.132-0.82,0.132-1.332v-5.148h0.815v5.388c0,1.128-0.277,1.99-0.834,2.586c-0.556,0.596-1.394,0.894-2.514,0.894
			c-1.128,0-1.968-0.304-2.521-0.912c-0.552-0.608-0.827-1.464-0.827-2.568V26.613z"/>
		<path d="M757.067,27.717h-0.024v7.536h-0.815v-8.64h0.924l4.992,7.548h0.023v-7.548h0.816v8.64h-0.948L757.067,27.717z"/>
		<path d="M764.915,35.253v-8.64h2.952c0.24,0,0.476,0.006,0.708,0.018c0.232,0.012,0.46,0.04,0.685,0.084
			c0.224,0.044,0.441,0.11,0.653,0.198s0.418,0.204,0.618,0.348c0.288,0.208,0.524,0.462,0.708,0.762s0.33,0.616,0.438,0.948
			c0.107,0.333,0.184,0.668,0.228,1.008s0.066,0.654,0.066,0.942s-0.019,0.58-0.055,0.876c-0.035,0.296-0.094,0.586-0.174,0.87
			s-0.186,0.556-0.317,0.816c-0.133,0.26-0.299,0.498-0.498,0.714c-0.2,0.224-0.419,0.404-0.654,0.54
			c-0.236,0.136-0.484,0.242-0.744,0.318c-0.26,0.076-0.53,0.128-0.81,0.156c-0.28,0.028-0.564,0.042-0.853,0.042H764.915z
			 M765.731,34.557h1.956c0.368,0,0.714-0.022,1.038-0.066c0.324-0.043,0.653-0.154,0.99-0.33c0.287-0.144,0.523-0.34,0.708-0.588
			c0.184-0.248,0.329-0.518,0.438-0.81c0.108-0.292,0.184-0.598,0.229-0.918c0.043-0.32,0.065-0.628,0.065-0.924
			c0-0.312-0.02-0.63-0.06-0.954c-0.04-0.324-0.116-0.632-0.229-0.924s-0.264-0.56-0.456-0.804
			c-0.191-0.244-0.439-0.446-0.744-0.606c-0.256-0.136-0.56-0.224-0.912-0.264c-0.352-0.04-0.708-0.06-1.067-0.06h-1.956V34.557z"/>
		<path d="M776.831,35.253v-8.64h5.568v0.696h-4.752v3.12h4.32v0.696h-4.32v4.128H776.831z"/>
		<path d="M783.587,35.253v-8.64h0.816v7.944h4.632v0.696H783.587z"/>
		<path d="M789.923,30.945c0-0.632,0.086-1.224,0.258-1.776c0.173-0.552,0.427-1.034,0.763-1.446s0.752-0.738,1.248-0.978
			c0.496-0.24,1.067-0.36,1.716-0.36c0.672,0,1.262,0.118,1.77,0.354c0.508,0.236,0.933,0.56,1.272,0.972s0.596,0.896,0.768,1.452
			s0.259,1.15,0.259,1.782c0,0.624-0.087,1.21-0.259,1.758s-0.426,1.028-0.762,1.44s-0.756,0.738-1.26,0.978
			c-0.504,0.24-1.088,0.36-1.752,0.36s-1.248-0.12-1.752-0.36c-0.504-0.24-0.924-0.566-1.261-0.978
			c-0.336-0.412-0.588-0.892-0.756-1.44S789.923,31.569,789.923,30.945z M793.955,34.785c0.56,0,1.042-0.106,1.446-0.318
			c0.403-0.212,0.735-0.494,0.996-0.846c0.26-0.352,0.451-0.76,0.575-1.224s0.187-0.948,0.187-1.452c0-0.6-0.074-1.138-0.222-1.614
			c-0.148-0.476-0.362-0.882-0.643-1.218s-0.62-0.592-1.02-0.768c-0.4-0.176-0.849-0.264-1.345-0.264
			c-0.552,0-1.029,0.108-1.434,0.324c-0.404,0.216-0.736,0.502-0.996,0.858c-0.26,0.356-0.452,0.767-0.576,1.23
			s-0.186,0.948-0.186,1.452c0,0.512,0.062,1,0.186,1.464c0.124,0.464,0.316,0.872,0.576,1.224s0.592,0.632,0.996,0.84
			S793.387,34.785,793.955,34.785z"/>
		<path d="M799.259,30.945c0-0.632,0.086-1.224,0.258-1.776c0.173-0.552,0.427-1.034,0.763-1.446s0.752-0.738,1.248-0.978
			c0.496-0.24,1.067-0.36,1.716-0.36c0.672,0,1.262,0.118,1.77,0.354c0.508,0.236,0.933,0.56,1.272,0.972s0.596,0.896,0.768,1.452
			s0.259,1.15,0.259,1.782c0,0.624-0.087,1.21-0.259,1.758s-0.426,1.028-0.762,1.44s-0.756,0.738-1.26,0.978
			c-0.504,0.24-1.088,0.36-1.752,0.36s-1.248-0.12-1.752-0.36c-0.504-0.24-0.924-0.566-1.261-0.978
			c-0.336-0.412-0.588-0.892-0.756-1.44S799.259,31.569,799.259,30.945z M803.291,34.785c0.56,0,1.042-0.106,1.446-0.318
			c0.403-0.212,0.735-0.494,0.996-0.846c0.26-0.352,0.451-0.76,0.575-1.224s0.187-0.948,0.187-1.452c0-0.6-0.074-1.138-0.222-1.614
			c-0.148-0.476-0.362-0.882-0.643-1.218s-0.62-0.592-1.02-0.768c-0.4-0.176-0.849-0.264-1.345-0.264
			c-0.552,0-1.029,0.108-1.434,0.324c-0.404,0.216-0.736,0.502-0.996,0.858c-0.26,0.356-0.452,0.767-0.576,1.23
			s-0.186,0.948-0.186,1.452c0,0.512,0.062,1,0.186,1.464c0.124,0.464,0.316,0.872,0.576,1.224s0.592,0.632,0.996,0.84
			S802.723,34.785,803.291,34.785z"/>
		<path d="M809.735,31.329v3.924l-0.816-0.012v-8.628h3.384c0.952,0,1.681,0.178,2.185,0.534s0.756,0.934,0.756,1.734
			c0,0.544-0.11,0.976-0.33,1.296c-0.221,0.32-0.578,0.592-1.074,0.816c0.256,0.088,0.456,0.216,0.601,0.384
			c0.144,0.168,0.252,0.36,0.323,0.576c0.072,0.216,0.118,0.444,0.139,0.684c0.02,0.24,0.033,0.472,0.042,0.696
			c0.008,0.328,0.021,0.6,0.042,0.816c0.02,0.216,0.044,0.392,0.071,0.528c0.028,0.136,0.062,0.242,0.103,0.318
			s0.088,0.134,0.144,0.174v0.072l-0.899,0.012c-0.089-0.144-0.15-0.344-0.187-0.6c-0.036-0.256-0.063-0.524-0.084-0.804
			c-0.02-0.28-0.036-0.552-0.048-0.816c-0.012-0.264-0.034-0.48-0.066-0.648c-0.048-0.232-0.126-0.418-0.233-0.558
			c-0.108-0.14-0.238-0.246-0.391-0.318c-0.151-0.072-0.321-0.12-0.51-0.144c-0.188-0.024-0.382-0.036-0.582-0.036H809.735z
			 M812.279,30.633c0.304,0,0.586-0.032,0.846-0.096s0.486-0.166,0.678-0.306c0.192-0.14,0.344-0.318,0.456-0.534
			c0.112-0.216,0.168-0.476,0.168-0.78c0-0.32-0.058-0.584-0.174-0.792s-0.272-0.372-0.468-0.492
			c-0.196-0.12-0.42-0.204-0.672-0.252s-0.515-0.072-0.786-0.072h-2.592v3.324H812.279z"/>
	</g>
</g>
<g id="Units">
	<polygon id="ref1" fill="#EB6923" stroke="#231F20" points="149.452,114.425 194.473,173.326 227.076,215.981 282.579,177.371 
		280.567,174.756 290.422,166.31 292.03,168.722 336.674,117.443 329.636,107.588 338.082,100.551 334.261,95.322 343.513,87.882 
		282.579,8.045 266.893,16.491 264.882,22.122 247.387,31.373 201.335,63.548 	"/>
	<polygon id="ref4" fill="#EB6923" stroke="#231F20" points="207.667,232.167 177.833,193.333 161.416,207.132 191.129,245.895 	"/>
	<polygon id="ref5" fill="#EB6923" stroke="#231F20" points="161.416,207.132 150.105,216.785 139.396,226.137 143.227,231.223 
		168.355,264.597 179.666,255.396 191.129,245.895 	"/>
	<polygon id="ref6" fill="#EB6923" stroke="#231F20" points="168.355,264.597 143.227,231.223 139.547,233.979 138.793,238.203 
		129.291,234.884 120.694,262.636 158.25,273.646 	"/>
	<polygon id="ref7" fill="#EB6923" stroke="#231F20" points="120.694,262.636 129.291,234.884 93.697,223.271 67.454,204.267 
		56.745,216.032 58.404,243.783 	"/>
	<polygon id="ref8_1_" fill="#EB6923" stroke="#231F20" points="109.382,277.115 110.288,288.427 90.831,292.801 93.848,308.793 
		75.296,314.072 68.961,284.054 	"/>
	<polygon id="ref9" fill="#EB6923" stroke="#231F20" points="116.924,276.512 109.835,305.324 111.946,315.43 130.95,310.453 
		138.793,283.299 	"/>
	<polygon id="ref10" fill="#EB6923" stroke="#231F20" points="130.95,310.453 138.793,283.299 152.971,287.823 166.243,295.817 
		141.056,334.131 120.694,318.898 	"/>
	<polygon id="ref11" fill="#EB6923" stroke="#231F20" points="104.514,327.952 100.005,329.186 100.609,332.353 95.205,333.831 
		93.848,327.497 79.67,331.417 86.759,360.979 99.714,357.457 131.705,348.763 141.056,334.131 120.694,318.898 112.852,320.559 
		114.511,328.552 105.118,331.12 	"/>
	<polygon id="ref12" fill="#EB6923" stroke="#231F20" points="99.714,357.457 86.759,360.979 97.316,401.701 110.288,401.098 	"/>
	<polygon id="ref13" fill="#EB6923" stroke="#231F20" points="137.737,371.085 144.373,399.59 182.683,384.355 181.024,362.185 
		175.775,358.455 155.986,344.388 	"/>
	<polygon id="ref14" fill="#EB6923" stroke="#231F20" points="175.775,358.455 155.986,344.388 181.778,305.475 202.743,318.898 	
		"/>
	<polygon id="ref15" fill="#EB6923" stroke="#231F20" points="208.172,321.765 202.743,318.898 175.775,358.455 181.024,362.185 
		189.168,361.129 189.168,359.621 196.257,359.169 197.463,373.497 201.837,372.743 201.083,363.693 210.585,356.001 
		212.094,357.812 226.573,345.594 	"/>
	<polygon id="ref16" fill="#EB6923" stroke="#231F20" points="231.55,352.533 219.634,362.185 222.802,365.956 223.255,376.966 
		238.456,375.519 248.593,374.553 	"/>
	<polygon id="ref17" fill="#EB6923" stroke="#231F20" points="248.593,374.553 238.456,375.519 239.694,392.501 260.659,389.936 	
		"/>
	<polygon id="ref19" fill="#EB6923" stroke="#231F20" points="220.238,304.72 246.482,338.204 271.669,316.637 251.957,290.96 
		245.727,282.846 	"/>
	<polygon id="ref18" fill="#EB6923" stroke="#231F20" points="271.669,316.637 246.482,338.204 276.797,377.268 281.473,373.346 
		280.267,371.838 292.633,361.28 286.902,354.342 294.444,348.611 291.579,345.144 292.935,344.088 	"/>
	<polygon id="ref20" fill="#EB6923" stroke="#231F20" points="220.238,304.72 245.727,282.846 251.957,290.96 255.38,287.823 
		245.727,276.21 249.951,273.042 231.852,250.118 226.573,253.738 216.769,300.494 	"/>
	<polygon id="ref27" fill="#EB6923" stroke="#231F20" points="307.224,356.706 355.527,315.882 350.701,307.436 310.558,341.668 
		301.533,349.365 	"/>
	<polygon id="ref26" fill="#EB6923" stroke="#231F20" points="310.558,341.668 350.701,307.436 346.176,299.136 316.126,324.711 
		304.7,334.434 	"/>
	<polygon id="ref25" fill="#EB6923" stroke="#231F20" points="316.126,324.711 346.176,299.136 338.182,285.561 306.51,312.111 	"/>
	<polygon id="ref31" fill="#EB6923" stroke="#231F20" points="376.945,353.438 341.35,382.546 341.35,389.032 356.734,389.032 
		384.034,366.106 	"/>
	<polygon id="ref32" fill="#EB6923" stroke="#231F20" points="384.034,366.106 356.734,389.032 356.734,393.406 367.443,393.406 
		370.76,397.629 385.692,384.81 389.011,389.485 395.043,385.261 	"/>
	<polygon id="ref29" fill="#EB6923" stroke="#231F20" points="290.803,395.225 279.21,380.134 287.355,373.497 298.947,388.589 	"/>
	<polygon id="ref24" fill="#EB6923" stroke="#231F20" points="329.95,270.529 322.949,257.961 271.82,301.098 287.657,321.614 
		296.619,313.895 289.99,304.948 	"/>
	<polygon id="ref200" fill="#EB6923" stroke="#231F20" points="329.95,270.529 289.99,304.948 296.619,313.895 335.468,280.433 	"/>
	<polygon id="ref23" fill="#EB6923" stroke="#231F20" points="271.82,301.098 322.949,257.96 307.565,230.812 293.338,242.976 
		259.754,271.685 260.81,273.194 257.039,276.512 265.486,286.466 262.469,289.03 	"/>
	<polygon id="ref22_1_" fill="#EB6923" stroke="#231F20" points="307.565,230.812 293.338,242.976 289.918,238.504 262.016,262.636 
		245.426,240.766 292.785,208.49 300.93,218.747 	"/>
	<polygon id="ref21" fill="#EB6923" stroke="#231F20" points="249.951,273.042 231.852,250.118 245.426,240.766 262.016,262.636 	
		"/>
	<polygon id="ref42" fill="#EB6923" stroke="#231F20" points="329.855,211.638 395.658,156.659 408.299,144.111 453.4,203.06 
		463.204,203.06 463.204,201.854 468.183,198.083 452.757,178.496 416.755,132.776 386.597,123.727 384.184,126.442 
		379.057,119.654 355.527,141.827 313.9,188.129 322.949,198.687 	"/>
	<polygon id="ref43" fill="#EB6923" stroke="#231F20" points="379.057,119.654 384.184,126.442 386.597,123.727 416.755,132.776 
		451.824,177.313 457.185,156.932 460.375,144.803 451.168,142.21 455.836,125.998 391.654,108.75 	"/>
	<polygon id="ref45" fill="#EB6923" stroke="#231F20" points="472.048,202.902 468.183,198.083 452.757,178.496 451.824,177.313 
		457.185,156.932 461.933,158.291 463.747,152.325 472.178,155.048 477.753,132.094 495.263,137.541 490.723,153.493 
		497.466,155.568 486.442,202.902 	"/>
	<polygon id="ref44" fill="#EB6923" stroke="#231F20" points="460.375,144.803 457.185,156.932 461.933,158.291 463.747,152.325 
		472.178,155.048 477.753,132.094 464.396,128.592 	"/>
	<polygon id="ref46" fill="#EB6923" stroke="#231F20" points="495.263,137.541 490.723,153.493 497.466,155.568 486.442,202.902 
		506.544,202.902 515.026,171.604 517.826,161.273 509.527,159.328 515.363,142.988 	"/>
	<polygon id="ref41" fill="#EB6923" stroke="#231F20" points="329.855,211.638 395.658,156.659 401.529,164.148 400.02,165.506 
		402.886,169.276 337.127,225.382 	"/>
	<polygon id="ref40" fill="#EB6923" stroke="#231F20" points="337.127,225.382 402.886,169.276 406.053,166.863 412.835,174.706 
		410.424,177.119 420.824,193.861 351.908,253.285 	"/>
	<polygon id="ref39" fill="#EB6923" stroke="#231F20" points="351.908,253.285 420.824,193.861 427.31,202.457 415.398,212.562 
		418.563,216.333 416.778,217.849 358.997,266.859 	"/>
	<polygon id="ref38" fill="#EB6923" stroke="#231F20" points="447.067,253.134 433.794,263.994 429.42,264.145 420.22,252.38 
		373.023,292.046 358.997,266.859 416.778,217.849 426.253,230.963 438.922,220.707 447.519,232.019 442.692,236.091 
		445.558,239.711 447.367,240.013 	"/>
	<polygon id="ref37" fill="#EB6923" stroke="#231F20" points="373.023,292.046 420.22,252.38 429.42,264.145 414.842,276.843 
		380.413,306.833 	"/>
	<polygon id="ref36" fill="#EB6923" stroke="#231F20" points="380.413,306.833 414.842,276.843 422.482,287.372 422.482,293.404 
		419.532,295.871 388.558,321.765 	"/>
	<polygon id="ref35" fill="#EB6923" stroke="#231F20" points="388.558,321.765 419.532,295.871 422.331,300.494 422.331,313.318 
		419.045,316.064 395.797,335.489 	"/>
	<polygon id="ref34" fill="#EB6923" stroke="#231F20" points="395.797,335.489 419.045,316.064 422.482,321.765 422.482,333.077 
		419.16,335.906 403.188,349.517 	"/>
	<polygon id="ref33" fill="#EB6923" stroke="#231F20" points="403.188,349.517 419.16,335.906 422.482,340.616 422.482,346.5 
		408.314,359.019 	"/>
	<polygon id="ref49" fill="#EB6923" stroke="#231F20" points="428.816,349.214 428.816,394.763 426.555,394.763 410.274,363.994 	
		"/>
	<path id="ref50" fill="#EB6923" stroke="#231F20" d="M428.816,342.578v38.837h2.805h8.553v13.348c0.161,0,0.317,0,0.483,0
		c12.368,0,19.626,13.877,19.626,13.877h0.207v-66.061H428.816z"/>
	<rect id="ref51" x="460.489" y="342.578" fill="#EB6923" stroke="#231F20" width="15.686" height="66.061"/>
	<polygon id="ref52" fill="#EB6923" stroke="#231F20" points="486.279,342.728 480.7,342.728 480.7,408.94 492.313,408.94 
		492.313,346.649 486.279,346.649 	"/>
	<rect id="ref53" x="492.313" y="346.649" fill="#EB6923" stroke="#231F20" width="15.837" height="62.291"/>
	<rect id="ref54" x="508.15" y="353.89" fill="#EB6923" stroke="#231F20" width="15.836" height="55.051"/>
	<polygon id="ref55" fill="#EB6923" stroke="#231F20" points="531.075,356.001 531.075,353.89 523.986,353.89 523.986,408.94 
		536.204,408.94 536.204,356.001 	"/>
	<polygon id="ref56" fill="#EB6923" stroke="#231F20" points="560.185,396.725 560.185,351.477 534.394,351.477 534.394,356.001 
		536.204,356.001 536.204,408.94 555.207,408.94 555.207,401.724 557.018,401.724 557.018,396.743 	"/>
	<path id="ref57" fill="#EB6923" stroke="#231F20" d="M584.618,396.812c0,0,21.893,0,23.84,0c1.945,0,10.339,11.189,10.339,11.189
		l19.314-30.633l9.049-0.704c0,0,1.68-12.815,12.263-17.44c10.581-4.621,24.448-11.31,24.448-11.31l-33.328-68.123l-18.37-29.436
		l-9.73-3.649l-14.961,8.028v3.892h-19.948v-8.758l-1.581-4.622l-6.934-2.068l-47.195,23.84h-4.5v13.501h-2.067v17.881h2.433v47.199
		h32.496v5.876v45.248l-3.167,0.019v4.98h-1.811v7.217h15.545C570.752,408.94,578.293,396.812,584.618,396.812z"/>
	<polygon id="ref58" fill="#EB6923" stroke="#231F20" points="665.059,386.317 660.232,388.529 663.55,397.076 640.021,408.136 
		632.479,418.895 618.797,408.001 638.111,377.368 647.16,376.664 661.137,375.659 	"/>
	<polygon id="ref80" fill="#EB6923" stroke="#231F20" points="493.867,434.037 476.446,434.037 476.446,434.021 460.723,434.021 
		460.723,518.917 472.364,518.917 472.364,490.538 476.446,490.538 476.446,490.523 493.867,490.523 	"/>
	<rect id="ref78" x="493.789" y="434.02" fill="#EB6923" stroke="#231F20" width="14.744" height="24.665"/>
	<polygon id="ref77" fill="#EB6923" stroke="#231F20" points="508.533,434.02 508.533,458.686 493.789,458.686 493.789,490.442 
		508.435,490.442 508.435,499.137 530.361,499.137 530.361,434.015 	"/>
	<polygon id="ref76" fill="#EB6923" stroke="#231F20" points="547.255,480.129 547.255,434.015 530.361,434.015 530.361,499.137 
		555.701,499.137 555.701,480.129 	"/>
	<polygon id="ref75" fill="#EB6923" stroke="#231F20" points="558.877,471.28 563.804,476.408 563.804,497.021 567.524,497.021 
		567.524,498.73 572.251,498.73 572.251,434.078 556.061,434.078 556.061,471.28 	"/>
	<polygon id="ref74" fill="#EB6923" stroke="#231F20" points="588.137,493.452 588.137,498.75 580.797,498.75 580.797,496.619 
		577.177,496.619 577.177,498.73 572.251,498.73 572.251,434.078 592.711,434.078 592.711,493.452 	"/>
	<polygon id="ref73" fill="#EB6923" stroke="#231F20" points="592.711,434.078 592.711,493.452 588.137,493.452 588.137,498.75 
		603.472,498.75 603.472,488.123 603.472,434.072 	"/>
	<path id="ref72" fill="#EB6923" stroke="#231F20" d="M644.043,447.702l-8.747,12.52v36.951v2.113h-8.447v-2.716h-3.922v2.262
		h-10.256v-1.811h-3.317v-8.898h-5.882v-54.051c0,0,13.574,0,17.796,0c4.225,0,6.486,1.112,9.05,3.223
		C632.882,439.406,644.043,447.702,644.043,447.702z"/>
	<polygon id="ref71" fill="#EB6923" stroke="#231F20" points="644.043,447.702 635.296,460.222 635.296,497.173 639.065,497.173 
		639.065,492.046 651.584,492.046 651.584,465.5 656.863,457.506 	"/>
	<polygon id="ref70" fill="#EB6923" stroke="#231F20" points="656.863,457.506 651.584,465.5 651.584,492.046 651.584,498.531 
		656.41,498.531 656.41,496.117 660.785,496.117 660.785,491.291 658.22,491.291 658.22,487.52 666.969,487.52 666.969,470.93 
		669.381,467.159 	"/>
	<polygon id="ref69" fill="#EB6923" stroke="#231F20" points="669.381,467.159 666.969,470.93 666.969,487.52 670.135,487.52 
		670.135,486.012 674.357,486.012 674.357,481.939 676.471,481.939 676.471,472.438 	"/>
	<polygon id="ref68" fill="#EB6923" stroke="#231F20" points="715.332,502.853 694.819,502.853 694.819,485.058 680.643,485.058 
		680.643,475.604 700.852,475.604 714.327,485.861 723.678,473.09 723.678,466.454 724.984,465.953 729.409,482.543 	"/>
	<polygon id="ref87" fill="#EB6923" stroke="#231F20" points="275.761,435.811 274.46,410.976 257.043,411.889 257.186,414.613 
		252.339,414.867 253.785,442.451 262.369,442.003 276.048,441.287 	"/>
	
		<rect id="ref86" x="254.422" y="441.852" transform="matrix(0.9986 -0.0522 0.0522 0.9986 -23.3609 14.4869)" fill="#EB6923" stroke="#231F20" width="22.294" height="24.939"/>
	<polygon id="ref85" fill="#EB6923" stroke="#231F20" points="250.315,505.672 249.832,496.473 256.597,496.118 255.09,467.356 
		277.353,466.192 280.566,516.311 257.719,517.506 257.08,505.316 	"/>
	<polygon id="ref84" fill="#EB6923" stroke="#231F20" points="284.479,566.607 253.342,566.52 251.107,523.867 282.153,522.242 	"/>
	<polygon id="ref47" fill="#EB6923" stroke="#231F20" points="558.159,187.471 541.04,150.899 522.365,145.063 515.125,171.312 
		515.026,171.605 506.544,202.902 518.657,227.545 534.644,219.702 537.461,226.237 555.66,217.289 559.078,225.332 
		572.753,218.293 	"/>
	<polygon id="ref59" fill="#EB6923" stroke="#231F20" points="666.844,404.679 645.85,415.054 639.56,424.203 653.039,434.17 
		663.17,418.893 671.257,414.482 	"/>
	<polygon id="ref60" fill="#EB6923" stroke="#231F20" points="689.636,429.677 679.098,423.713 671.257,414.482 663.17,418.893 
		653.039,434.17 665.702,443.892 679.016,453.693 691.679,453.203 691.679,434.17 	"/>
	<polygon id="ref62" fill="#EB6923" stroke="#231F20" points="691.679,434.17 691.679,453.203 720.758,451.978 713.163,423.956 	"/>
	<polygon id="ref63" fill="#EB6923" stroke="#231F20" points="722.066,432.861 726.805,451.567 748.942,450.753 748.942,441.031 
		746.248,441.031 746.248,428.858 740.12,428.369 	"/>
	<polygon id="ref64" fill="#EB6923" stroke="#231F20" points="746.248,428.858 746.248,441.031 748.942,441.031 748.942,450.753 
		796.979,449.663 796.979,448.307 799.995,448.307 799.995,450.417 802.408,449.965 795.621,418.744 773.601,422.665 
		773.902,424.626 	"/>
	<polygon id="ref67" fill="#EB6923" stroke="#231F20" points="730.238,464.444 746.828,464.444 746.828,486.238 732.727,487.746 
		735.141,483.899 	"/>
	<path id="ref66" fill="#EB6923" stroke="#231F20" d="M761.158,479.978c0,0-3.62,0.378-5.582,0.756
		c-1.96,0.376-3.619,1.732-3.619,2.94c0,1.207,0,2.564,0,2.564h-5.129v-21.794h14.33V479.978z"/>
	<path id="ref65" fill="#EB6923" stroke="#231F20" d="M811.459,526.357c-3.102-5.533-7.77-10.707-12.067-23.149
		c-4.298-12.445-4.826-21.417-4.826-21.417l9.351-3.545l-0.15-1.208l4.902-1.281l-3.62-14.781l-5.958,2.413l-37.932,1.057v15.534
		l10.255-2.186l7.392,40.195l3.618-0.905l2.791,15.609l-2.187,0.603l6.561,25.942l7.994-3.923l1.659,5.657l21.643-10.03
		C820.884,550.941,816.36,535.104,811.459,526.357z"/>
	<path id="ref100" fill="#EB6923" stroke="#231F20" d="M428.816,381.415v13.348c0,0,0.289,0,11.357,0v-13.348h-5.136H428.816z"/>
	<polygon id="ref3" fill="#EB6923" stroke="#231F20" points="216.474,202.11 194.473,173.326 181.226,184.41 184.028,188.141 
		177.833,193.333 207.667,232.167 213.526,227.42 220.131,221.844 209.291,207.562 	"/>
	<polygon id="ref90" fill="#EB6923" stroke="#231F20" points="216.474,202.11 209.291,207.562 220.131,221.844 227.076,215.982 	"/>
	<polygon id="ref81" fill="#EB6923" stroke="#231F20" points="443.25,434.409 410.333,434.409 410.333,411 399.167,393 
		391.333,400.167 391.333,411.167 361.167,411.167 361.167,503.5 361.167,513.667 410.5,513.667 410.5,520.167 417.625,520.167 
		417.625,516.075 422.799,516.075 422.799,490.123 453.665,490.123 453.665,444.25 	"/>
	<polygon id="ref91" fill="#EB6923" stroke="#231F20" points="303.5,411.167 303.5,433.833 290.167,435.5 292.667,472 295.833,472 
		295.833,515.333 296.5,520.833 304.5,520.833 304.5,527.833 314.167,527.833 314.167,535.333 339,535.333 339,509 355.333,509 
		355.333,503.5 361.167,503.5 361.167,411.167 	"/>
	<polygon id="ref92" fill="#EB6923" stroke="#231F20" points="339.125,539.125 307.75,539.125 307.75,541.75 297.875,541.75 
		298.375,548.25 303.25,548.25 303.75,551.375 302.125,552.625 301,554.375 300.667,556.417 301,558.625 301.5,560.333 
		302.75,561.75 304.375,562.875 306.375,563.375 308.917,563.333 311,562 312.333,560 313,557.375 315.5,557.375 315.5,562.375 
		343.375,562.375 343.375,557.875 336.5,557.875 336.5,552.375 339.083,552.375 	"/>
	<polygon id="ref28" fill="#EB6923" stroke="#231F20" points="369.252,339.261 355.527,315.882 307.224,356.706 287.355,373.497 
		298.947,388.589 303.343,394.312 320.847,379.691 322.949,382.396 322.949,398.081 339.842,398.081 339.842,393.707 
		341.35,393.707 341.35,389.032 341.35,382.546 376.945,353.438 	"/>
</g>
</svg>
